{
  "accessors": [
    {
      "bufferView": 2,
      "componentType": 5126,
      "count": 25344,
      "max": [
        0.6377390027046204,
        0.6821190118789673,
        1.1487970352172852
      ],
      "min": [
        -0.6377390027046204,
        -0.5933579802513123,
        -0.12661400437355042
      ],
      "type": "VEC3"
    },
    {
      "bufferView": 2,
      "byteOffset": 304128,
      "componentType": 5126,
      "count": 25344,
      "max": [
        0.9999986290931702,
        0.9999986290931702,
        1.0
      ],
      "min": [
        -0.9999986290931702,
        -0.9999986290931702,
        -1.0
      ],
      "type": "VEC3"
    },
    {
      "bufferView": 3,
      "componentType": 5126,
      "count": 25344,
      "max": [
        0.9993183016777039,
        0.8108993768692017,
        1.0,
        1.0
      ],
      "min": [
        -0.9998337030410767,
        -0.9998342394828796,
        -0.7070974707603455,
        -1.0
      ],
      "type": "VEC4"
    },
    {
      "bufferView": 1,
      "componentType": 5126,
      "count": 25344,
      "max": [
        1.0,
        1.0
      ],
      "min": [
        0.0,
        0.0
      ],
      "type": "VEC2"
    },
    {
      "bufferView": 0,
      "componentType": 5125,
      "count": 147456,
      "type": "SCALAR"
    },
    {
      "bufferView": 2,
      "byteOffset": 608256,
      "componentType": 5126,
      "count": 1089,
      "max": [
        0.5,
        -1.9301249980926514,
        -0.0013859999598935246
      ],
      "min": [
        -0.5,
        -2.9301249980926514,
        -0.0013859999598935246
      ],
      "type": "VEC3"
    },
    {
      "bufferView": 2,
      "byteOffset": 621324,
      "componentType": 5126,
      "count": 1089,
      "max": [
        0.0,
        -0.0,
        1.0
      ],
      "min": [
        0.0,
        -0.0,
        1.0
      ],
      "type": "VEC3"
    },
    {
      "bufferView": 3,
      "byteOffset": 405504,
      "componentType": 5126,
      "count": 1089,
      "max": [
        1.0,
        2.0345052689663135e-05,
        0.0,
        1.0
      ],
      "min": [
        1.0,
        -2.0345052689663135e-05,
        0.0,
        1.0
      ],
      "type": "VEC4"
    },
    {
      "bufferView": 1,
      "byteOffset": 202752,
      "componentType": 5126,
      "count": 1089,
      "max": [
        1.0,
        1.0
      ],
      "min": [
        0.0,
        0.0
      ],
      "type": "VEC2"
    },
    {
      "bufferView": 0,
      "byteOffset": 589824,
      "componentType": 5125,
      "count": 6144,
      "type": "SCALAR"
    }
  ],
  "asset": {
    "extras": {
      "author": "Kenny Kwok. (https://sketchfab.com/motpanda)",
      "license": "CC-BY-4.0 (http://creativecommons.org/licenses/by/4.0/)",
      "source": "https://sketchfab.com/3d-models/material-stone-lava-54f56ec9db844d6fb9179830b36d165b",
      "title": "Material Stone & Lava"
    },
    "generator": "Sketchfab-12.66.0",
    "version": "2.0"
  },
  "bufferViews": [
    {
      "buffer": 0,
      "byteLength": 614400,
      "name": "floatBufferViews",
      "target": 34963
    },
    {
      "buffer": 0,
      "byteLength": 211464,
      "byteOffset": 614400,
      "byteStride": 8,
      "name": "floatBufferViews",
      "target": 34962
    },
    {
      "buffer": 0,
      "byteLength": 634392,
      "byteOffset": 825864,
      "byteStride": 12,
      "name": "floatBufferViews",
      "target": 34962
    },
    {
      "buffer": 0,
      "byteLength": 422928,
      "byteOffset": 1460256,
      "byteStride": 16,
      "name": "floatBufferViews",
      "target": 34962
    }
  ],
  "buffers": [
    {
      "byteLength": 1883184,
      "uri": "scene.bin"
    }
  ],
  "images": [
    {
      "uri": "textures/surfaceShader1SG_baseColor.jpeg"
    },
    {
      "uri": "textures/surfaceShader1SG_metallicRoughness.png"
    },
    {
      "uri": "textures/surfaceShader1SG_normal.png"
    }
  ],
  "materials": [
    {
      "doubleSided": true,
      "name": "surfaceShader1SG",
      "normalTexture": {
        "index": 2
      },
      "occlusionTexture": {
        "index": 1
      },
      "pbrMetallicRoughness": {
        "baseColorTexture": {
          "index": 0
        },
        "metallicFactor": 0.0,
        "metallicRoughnessTexture": {
          "index": 1
        }
      }
    }
  ],
  "meshes": [
    {
      "name": "Object_0",
      "primitives": [
        {
          "attributes": {
            "NORMAL": 1,
            "POSITION": 0,
            "TANGENT": 2,
            "TEXCOORD_0": 3
          },
          "indices": 4,
          "material": 0,
          "mode": 4
        }
      ]
    },
    {
      "name": "Object_1",
      "primitives": [
        {
          "attributes": {
            "NORMAL": 6,
            "POSITION": 5,
            "TANGENT": 7,
            "TEXCOORD_0": 8
          },
          "indices": 9,
          "material": 0,
          "mode": 4
        }
      ]
    }
  ],
  "nodes": [
    {
      "children": [
        1
      ],
      "matrix": [
        1.0,
        0.0,
        0.0,
        0.0,
        0.0,
        2.220446049250313e-16,
        -1.0,
        0.0,
        0.0,
        1.0,
        2.220446049250313e-16,
        0.0,
        0.0,
        0.0,
        0.0,
        1.0
      ],
      "name": "Sketchfab_model"
    },
    {
      "children": [
        2,
        3
      ],
      "name": "SingleHD.obj.cleaner.materialmerger.gles"
    },
    {
      "mesh": 0,
      "name": "Object_2"
    },
    {
      "mesh": 1,
      "name": "Object_3"
    }
  ],
  "samplers": [
    {
      "magFilter": 9729,
      "minFilter": 9987,
      "wrapS": 10497,
      "wrapT": 10497
    }
  ],
  "scene": 0,
  "scenes": [
    {
      "name": "Sketchfab_Scene",
      "nodes": [
        0
      ]
    }
  ],
  "textures": [
    {
      "sampler": 0,
      "source": 0
    },
    {
      "sampler": 0,
      "source": 1
    },
    {
      "sampler": 0,
      "source": 2
    }
  ]
}
